----------------------------------------------------------------
** The movie contain GREEK & ENGLISH -SOFTSUBBED- subtitles! **
----------------------------------------------------------------

General
Complete name                            : Metro.2013.720p.BluRay.mHD.x264.1800MB-GRRiPS.m4v
Format                                   : MPEG-4
Format profile                           : Base Media / Version 2
Codec ID                                 : mp42
File size                                : 1.78 GiB
Duration                                 : 2h 11mn
Overall bit rate mode                    : Variable
Overall bit rate                         : 1 930 Kbps
Movie name                               : HDCLUB present "Metro.2013.720p.Blu-Ray.Rus.HDCLUB"

Video
ID                                       : 1
Format                                   : AVC
Format/Info                              : Advanced Video Codec
Format profile                           : Main@L4.0
Format settings, CABAC                   : Yes
Format settings, ReFrames                : 4 frames
Codec ID                                 : avc1
Codec ID/Info                            : Advanced Video Coding
Duration                                 : 2h 11mn
Bit rate mode                            : Variable
Bit rate                                 : 1 764 Kbps
Width                                    : 1 280 pixels
Height                                   : 544 pixels
Display aspect ratio                     : 2.35:1
Frame rate mode                          : Variable
Frame rate                               : 23.976 fps
Minimum frame rate                       : 23.810 fps
Maximum frame rate                       : 24.390 fps
Color space                              : YUV
Chroma subsampling                       : 4:2:0
Bit depth                                : 8 bits
Scan type                                : Progressive
Bits/(Pixel*Frame)                       : 0.106
Stream size                              : 1.62 GiB (91%)
Writing library                          : x264 core 130 r2273 b3065e6
Color primaries                          : BT.709
Transfer characteristics                 : BT.709
Matrix coefficients                      : BT.709

Audio
ID                                       : 2
Format                                   : AAC
Format/Info                              : Advanced Audio Codec
Format profile                           : LC
Codec ID                                 : 40
Duration                                 : 2h 11mn
Bit rate mode                            : Variable
Bit rate                                 : 160 Kbps
Maximum bit rate                         : 233 Kbps
Channel(s)                               : 2 channels
Channel positions                        : Front: L R
Sampling rate                            : 48.0 KHz
Compression mode                         : Lossy
Delay relative to video                  : 83ms
Stream size                              : 150 MiB (8%)
Language                                 : Russian

Text #1
ID                                       : 3
Format                                   : Timed text
Muxing mode                              : sbtl
Codec ID                                 : tx3g
Duration                                 : 2h 7mn
Bit rate mode                            : Variable
Bit rate                                 : 80 bps
Delay relative to video                  : 83ms
Stream size                              : 74.6 KiB (0%)
Language                                 : Greek

Text #2
ID                                       : 4
Format                                   : Timed text
Muxing mode                              : sbtl
Codec ID                                 : tx3g
Duration                                 : 2h 7mn
Bit rate mode                            : Variable
Bit rate                                 : 48 bps
Delay relative to video                  : 83ms
Stream size                              : 45.1 KiB (0%)
Language                                 : English

Text #3
ID                                       : 5
Format                                   : Apple text
Codec ID                                 : text
Duration                                 : 2h 11mn
Bit rate mode                            : Variable
Bit rate                                 : 0 bps
Stream size                              : 423 Bytes (0%)

MicroHD rip from HDCLUB!

APO EDW MPOREITE NA TO  KATEBASETE APO HOSTER, AN DEN 8ELETE NA PERIMENE TORRENT 'H EXEI XAMILI TAXITHTA! :D
(APO TA LINK, DIAGRAPSTE TA KENA ALLIWS DEN ANNOIGEI H SELIDA)

YOU CAN DOWNLOAD THE MOVIE FROM THE LINKS BELOW IF YOU WANT :D
(PLEASE REMOVE THE BLANKS FROM THE LINKS 'CAUSE OTHERWISE IT WON'T WORK

EPILOGH/OPTION 1: ad f. ly/Q9FuQ
                  ad f. ly/Q9Fz0

EPILOGH/OPTION 2: ad f. ly/Q9G3K
                  ad f. ly/Q9G6B

KALH PROBOLH KAI S E E D ! ! ! !

-------------------------------------------------------
|PERISSOTERA/MORE: https://thepiratebay.sx/user/GRRiPS|
-------------------------------------------------------

FULL SCREENSHOT: 
http://bayimg.com/LAnNfAaEb